<?xml version="1.0" encoding="UTF-8" standalone="no"?>
<!-- Created with Inkscape (http://www.inkscape.org/) -->

<svg
   xmlns:dc="http://purl.org/dc/elements/1.1/"
   xmlns:cc="http://creativecommons.org/ns#"
   xmlns:rdf="http://www.w3.org/1999/02/22-rdf-syntax-ns#"
   xmlns:svg="http://www.w3.org/2000/svg"
   xmlns="http://www.w3.org/2000/svg"
   xmlns:xlink="http://www.w3.org/1999/xlink"
   xmlns:sodipodi="http://sodipodi.sourceforge.net/DTD/sodipodi-0.dtd"
   xmlns:inkscape="http://www.inkscape.org/namespaces/inkscape"
   width="1920"
   height="1080"
   viewBox="0 0 507.99997 285.75001"
   version="1.1"
   id="svg8"
   sodipodi:docname="Sugar Wallpaper.svg"
   inkscape:version="0.92.3 (2405546, 2018-03-11)"
   inkscape:export-filename="C:\Users\benwi\Pictures\Wallpaper\Sugar Wallpaper.png"
   inkscape:export-xdpi="96"
   inkscape:export-ydpi="96">
  <defs
     id="defs2">
    <inkscape:path-effect
       effect="spiro"
       id="path-effect977"
       is_visible="true" />
    <linearGradient
       gradientTransform="matrix(0.98006928,0,0,0.97624684,114.01129,-136.03544)"
       inkscape:collect="always"
       xlink:href="#linearGradient839"
       id="linearGradient841"
       x1="150.15329"
       y1="289.15778"
       x2="144.26663"
       y2="308.82144"
       gradientUnits="userSpaceOnUse" />
    <linearGradient
       inkscape:collect="always"
       id="linearGradient839">
      <stop
         style="stop-color:#d11d57;stop-opacity:1"
         offset="0"
         id="stop835" />
      <stop
         style="stop-color:#95153e;stop-opacity:1"
         offset="1"
         id="stop837" />
    </linearGradient>
    <linearGradient
       gradientTransform="matrix(0.98006928,0,0,0.97624684,114.01129,-136.03544)"
       inkscape:collect="always"
       xlink:href="#linearGradient847"
       id="linearGradient849"
       x1="134.55833"
       y1="300.62827"
       x2="132.1282"
       y2="286.84903"
       gradientUnits="userSpaceOnUse" />
    <linearGradient
       inkscape:collect="always"
       id="linearGradient847">
      <stop
         style="stop-color:#8c143a;stop-opacity:1"
         offset="0"
         id="stop843" />
      <stop
         style="stop-color:#5a0c1f;stop-opacity:1"
         offset="1"
         id="stop845" />
    </linearGradient>
  </defs>
  <sodipodi:namedview
     id="base"
     pagecolor="#ffffff"
     bordercolor="#666666"
     borderopacity="1.0"
     inkscape:pageopacity="0.0"
     inkscape:pageshadow="2"
     inkscape:zoom="0.50000001"
     inkscape:cx="795.39033"
     inkscape:cy="546.90433"
     inkscape:document-units="px"
     inkscape:current-layer="layer1"
     showgrid="false"
     inkscape:snap-center="true"
     inkscape:snap-object-midpoints="true"
     inkscape:snap-smooth-nodes="true"
     inkscape:snap-midpoints="true"
     inkscape:snap-intersection-paths="true"
     inkscape:object-paths="true"
     inkscape:snap-bbox="true"
     inkscape:window-width="1920"
     inkscape:window-height="986"
     inkscape:window-x="-11"
     inkscape:window-y="-11"
     inkscape:window-maximized="1"
     units="px"
     inkscape:snap-bbox-midpoints="true"
     inkscape:snap-bbox-edge-midpoints="true"
     inkscape:bbox-paths="true"
     inkscape:bbox-nodes="true" />
  <metadata
     id="metadata5">
    <rdf:RDF>
      <cc:Work
         rdf:about="">
        <dc:format>image/svg+xml</dc:format>
        <dc:type
           rdf:resource="http://purl.org/dc/dcmitype/StillImage" />
        <dc:title />
      </cc:Work>
    </rdf:RDF>
  </metadata>
  <g
     inkscape:label="Layer 1"
     inkscape:groupmode="layer"
     id="layer1"
     transform="translate(0,-11.249969)">
    <rect
       style="opacity:1;fill:#27252c;fill-opacity:1;fill-rule:nonzero;stroke:#800000;stroke-width:0;stroke-miterlimit:4;stroke-dasharray:none;stroke-dashoffset:0;stroke-opacity:1"
       id="rect829"
       width="508"
       height="285.75"
       x="5e-007"
       y="11.249965"
       rx="0"
       ry="0" />
    <path
       id="path815-0-1"
       d="m 238.97144,137.71849 v 18.13886 a 14.731821,14.674364 0 0 0 0.59338,4.08479 14.731821,14.674364 0 0 0 1.5e-4,0 9.1049705,9.0694597 0 0 0 5.03328,1.51902 9.1049705,9.0694597 0 0 0 9.10501,-9.0683 9.1049705,9.0694597 0 0 0 0,-9.3e-4 14.731821,14.674364 0 0 1 0,-1.4e-4 14.731821,14.674364 0 0 0 -14.73182,-14.67304 z m 0.59367,22.22441 a 14.731821,14.674364 0 0 0 0.47175,1.36254 14.731821,14.674364 0 0 1 -0.47175,-1.36254 z m 0.48204,1.39082 a 14.731821,14.674364 0 0 0 0.59474,1.28453 14.731821,14.674364 0 0 1 -0.59474,-1.28453 z m 0.61963,1.33587 a 14.731821,14.674364 0 0 0 0.70488,1.19252 14.731821,14.674364 0 0 1 -0.70488,-1.19252 z m 0.75133,1.26813 a 14.731821,14.674364 0 0 0 0.79681,1.08363 14.731821,14.674364 0 0 1 -0.79681,-1.08363 z m 0.87641,1.18802 a 14.731821,14.674364 0 0 0 0.87002,0.96436 14.731821,14.674364 0 0 1 -0.87002,-0.96436 z m 0.99236,1.09513 a 14.731821,14.674364 0 0 0 0.92408,0.83835 14.731821,14.674364 0 0 1 -0.92408,-0.83835 z m 1.0982,0.99072 a 14.731821,14.674364 0 0 0 0.95284,0.70479 14.731821,14.674364 0 0 1 -0.95284,-0.70479 z m 1.19493,0.87728 a 14.731821,14.674364 0 0 0 0.96318,0.57335 14.731821,14.674364 0 0 1 -0.96318,-0.57335 z m 1.27659,0.75241 a 14.731821,14.674364 0 0 0 0.95754,0.44762 14.731821,14.674364 0 0 1 -0.95754,-0.44762 z m 1.34658,0.62107 a 14.731821,14.674364 0 0 0 0.93025,0.32632 14.731821,14.674364 0 0 1 -0.93025,-0.32632 z m 1.40426,0.48322 a 14.731821,14.674364 0 0 0 0.88419,0.21424 14.731821,14.674364 0 0 1 -0.88419,-0.21424 z m 1.44561,0.33991 a 14.731821,14.674364 0 0 0 0.82987,0.1153 14.731821,14.674364 0 0 1 -0.82987,-0.1153 z m 1.48107,0.19423 a 14.731821,14.674364 0 0 0 1.16914,0.0522 14.731821,14.674364 0 0 1 -1.16914,-0.0522 z"
       style="opacity:1;fill:url(#linearGradient849);fill-opacity:1;fill-rule:nonzero;stroke:#000000;stroke-width:3.13972402;stroke-linecap:round;stroke-linejoin:round;stroke-miterlimit:4;stroke-dasharray:none;stroke-dashoffset:0;stroke-opacity:1"
       inkscape:connector-curvature="0" />
    <path
       id="path815-0"
       d="m 268.43507,137.71849 a 14.731821,14.674364 0 0 0 -14.73181,14.67316 9.1049705,9.0694597 0 0 1 0,9.3e-4 9.1049705,9.0694597 0 0 1 -9.10501,9.0683 9.1049705,9.0694597 0 0 1 -5.03343,-1.51902 14.731821,14.674364 0 0 0 14.13844,10.58957 14.731821,14.674364 0 0 0 14.73181,-14.67434 z"
       style="opacity:1;fill:url(#linearGradient841);fill-opacity:1;fill-rule:nonzero;stroke:#000000;stroke-width:3.13972402;stroke-linecap:round;stroke-linejoin:round;stroke-miterlimit:4;stroke-dasharray:none;stroke-dashoffset:0;stroke-opacity:1"
       inkscape:connector-curvature="0" />
  </g>
</svg>
