<?xml version="1.0" encoding="UTF-8" standalone="no"?>
<!-- Created with Inkscape (http://www.inkscape.org/) -->

<svg
   xmlns:dc="http://purl.org/dc/elements/1.1/"
   xmlns:cc="http://creativecommons.org/ns#"
   xmlns:rdf="http://www.w3.org/1999/02/22-rdf-syntax-ns#"
   xmlns:svg="http://www.w3.org/2000/svg"
   xmlns="http://www.w3.org/2000/svg"
   xmlns:xlink="http://www.w3.org/1999/xlink"
   xmlns:sodipodi="http://sodipodi.sourceforge.net/DTD/sodipodi-0.dtd"
   xmlns:inkscape="http://www.inkscape.org/namespaces/inkscape"
   width="512"
   height="512"
   viewBox="0 0 135.46666 135.46667"
   version="1.1"
   id="svg8"
   sodipodi:docname="Sugar Name.svg"
   inkscape:version="0.92.3 (2405546, 2018-03-11)"
   inkscape:export-filename="C:\Users\benwi\Desktop\Projects\Sugar\Brand\Sugar Name.png"
   inkscape:export-xdpi="96"
   inkscape:export-ydpi="96">
  <defs
     id="defs2">
    <linearGradient
       inkscape:collect="always"
       id="linearGradient847">
      <stop
         style="stop-color:#8c143a;stop-opacity:1"
         offset="0"
         id="stop843" />
      <stop
         style="stop-color:#5a0c1f;stop-opacity:1"
         offset="1"
         id="stop845" />
    </linearGradient>
    <linearGradient
       inkscape:collect="always"
       id="linearGradient839">
      <stop
         style="stop-color:#d11d57;stop-opacity:1"
         offset="0"
         id="stop835" />
      <stop
         style="stop-color:#95153e;stop-opacity:1"
         offset="1"
         id="stop837" />
    </linearGradient>
    <inkscape:path-effect
       effect="spiro"
       id="path-effect977"
       is_visible="true" />
    <inkscape:path-effect
       effect="spiro"
       id="path-effect874"
       is_visible="true" />
    <linearGradient
       inkscape:collect="always"
       xlink:href="#linearGradient839"
       id="linearGradient841"
       x1="150.15329"
       y1="289.15778"
       x2="144.26663"
       y2="308.82144"
       gradientUnits="userSpaceOnUse" />
    <linearGradient
       inkscape:collect="always"
       xlink:href="#linearGradient847"
       id="linearGradient849"
       x1="134.55833"
       y1="300.62827"
       x2="132.1282"
       y2="286.84903"
       gradientUnits="userSpaceOnUse" />
  </defs>
  <sodipodi:namedview
     id="base"
     pagecolor="#ffffff"
     bordercolor="#666666"
     borderopacity="1.0"
     inkscape:pageopacity="0.0"
     inkscape:pageshadow="2"
     inkscape:zoom="1.4142136"
     inkscape:cx="173.33796"
     inkscape:cy="138.43502"
     inkscape:document-units="px"
     inkscape:current-layer="g833"
     showgrid="false"
     inkscape:snap-center="true"
     inkscape:snap-object-midpoints="true"
     inkscape:snap-smooth-nodes="true"
     inkscape:snap-midpoints="true"
     inkscape:snap-intersection-paths="true"
     inkscape:object-paths="true"
     inkscape:snap-bbox="true"
     inkscape:window-width="1920"
     inkscape:window-height="986"
     inkscape:window-x="-11"
     inkscape:window-y="-11"
     inkscape:window-maximized="1"
     units="px" />
  <metadata
     id="metadata5">
    <rdf:RDF>
      <cc:Work
         rdf:about="">
        <dc:format>image/svg+xml</dc:format>
        <dc:type
           rdf:resource="http://purl.org/dc/dcmitype/StillImage" />
        <dc:title />
      </cc:Work>
    </rdf:RDF>
  </metadata>
  <g
     inkscape:label="Layer 1"
     inkscape:groupmode="layer"
     id="layer1"
     transform="translate(0,-161.5333)">
    <text
       xml:space="preserve"
       style="font-style:normal;font-variant:normal;font-weight:normal;font-stretch:normal;font-size:50.79999924px;line-height:1.25;font-family:Consolas;-inkscape-font-specification:Consolas;letter-spacing:0px;word-spacing:0px;fill:#000000;fill-opacity:1;stroke:none;stroke-width:0.26458332;"
       x="-2.9425161"
       y="244.08328"
       id="text830"><tspan
         sodipodi:role="line"
         id="tspan828"
         x="-2.9425161"
         y="244.08328"
         style="font-style:normal;font-variant:normal;font-weight:normal;font-stretch:normal;font-size:50.79999924px;font-family:Consolas;-inkscape-font-specification:Consolas;stroke-width:0.26458332;">s gar</tspan></text>
    <circle
       style="opacity:1;fill:#000000;fill-opacity:0;fill-rule:nonzero;stroke:#000000;stroke-width:0;stroke-miterlimit:4;stroke-dasharray:none;stroke-dashoffset:0;stroke-opacity:1"
       id="path815-0-4-3-3"
       cx="68.793724"
       cy="203.64224"
       r="21.448654" />
    <g
       id="g833"
       transform="matrix(0.7210112,0,0,0.71819913,-63.780499,19.08471)">
      <path
         id="path815-0-1"
         d="m 127.50133,280.41465 v 18.58019 a 15.031407,15.031407 0 0 0 0.60547,4.18417 15.031407,15.031407 0 0 0 1.4e-4,0 9.2901292,9.2901292 0 0 0 5.13564,1.55598 9.2901292,9.2901292 0 0 0 9.29016,-9.28893 9.2901292,9.2901292 0 0 0 0,-9.6e-4 15.031407,15.031407 0 0 1 0,-1.5e-4 15.031407,15.031407 0 0 0 -15.0314,-15.03003 z m 0.60574,22.76517 a 15.031407,15.031407 0 0 0 0.48134,1.39568 15.031407,15.031407 0 0 1 -0.48134,-1.39568 z m 0.49185,1.42463 a 15.031407,15.031407 0 0 0 0.60683,1.31579 15.031407,15.031407 0 0 1 -0.60683,-1.31579 z m 0.63223,1.36837 a 15.031407,15.031407 0 0 0 0.71921,1.22157 15.031407,15.031407 0 0 1 -0.71921,-1.22157 z m 0.7666,1.299 a 15.031407,15.031407 0 0 0 0.81301,1.11001 15.031407,15.031407 0 0 1 -0.81301,-1.11001 z m 0.89425,1.21693 a 15.031407,15.031407 0 0 0 0.88771,0.9878 15.031407,15.031407 0 0 1 -0.88771,-0.9878 z m 1.01252,1.12176 a 15.031407,15.031407 0 0 0 0.94288,0.85876 15.031407,15.031407 0 0 1 -0.94288,-0.85876 z m 1.12053,1.01483 a 15.031407,15.031407 0 0 0 0.97223,0.72194 15.031407,15.031407 0 0 1 -0.97223,-0.72194 z m 1.21926,0.89864 a 15.031407,15.031407 0 0 0 0.98274,0.5873 15.031407,15.031407 0 0 1 -0.98274,-0.5873 z m 1.30254,0.77069 a 15.031407,15.031407 0 0 0 0.97701,0.45853 15.031407,15.031407 0 0 1 -0.97701,-0.45853 z m 1.37396,0.63618 a 15.031407,15.031407 0 0 0 0.94916,0.33427 15.031407,15.031407 0 0 1 -0.94916,-0.33427 z m 1.43282,0.49499 a 15.031407,15.031407 0 0 0 0.90218,0.21957 15.031407,15.031407 0 0 1 -0.90218,-0.21957 z m 1.47501,0.3482 a 15.031407,15.031407 0 0 0 0.84675,0.11812 15.031407,15.031407 0 0 1 -0.84675,-0.11812 z m 1.5112,0.19882 a 15.031407,15.031407 0 0 0 1.1929,0.0534 15.031407,15.031407 0 0 1 -1.1929,-0.0534 z"
         style="opacity:1;fill:url(#linearGradient849);fill-opacity:1;fill-rule:nonzero;stroke:#000000;stroke-width:3.20983922;stroke-linecap:round;stroke-linejoin:round;stroke-miterlimit:4;stroke-dasharray:none;stroke-dashoffset:0;stroke-opacity:1"
         inkscape:connector-curvature="0" />
      <path
         id="path815-0"
         d="m 157.56414,280.41465 a 15.031407,15.031407 0 0 0 -15.0314,15.03017 9.2901292,9.2901292 0 0 1 0,9.6e-4 9.2901292,9.2901292 0 0 1 -9.29017,9.28894 9.2901292,9.2901292 0 0 1 -5.13577,-1.55599 15.031407,15.031407 0 0 0 14.42594,10.84725 15.031407,15.031407 0 0 0 15.0314,-15.0314 z"
         style="opacity:1;fill:url(#linearGradient841);fill-opacity:1;fill-rule:nonzero;stroke:#000000;stroke-width:3.20983922;stroke-linecap:round;stroke-linejoin:round;stroke-miterlimit:4;stroke-dasharray:none;stroke-dashoffset:0;stroke-opacity:1"
         inkscape:connector-curvature="0" />
    </g>
  </g>
</svg>
