<?xml version="1.0" encoding="UTF-8" standalone="no"?>
<!-- Created with Inkscape (http://www.inkscape.org/) -->

<svg
   xmlns:dc="http://purl.org/dc/elements/1.1/"
   xmlns:cc="http://creativecommons.org/ns#"
   xmlns:rdf="http://www.w3.org/1999/02/22-rdf-syntax-ns#"
   xmlns:svg="http://www.w3.org/2000/svg"
   xmlns="http://www.w3.org/2000/svg"
   xmlns:sodipodi="http://sodipodi.sourceforge.net/DTD/sodipodi-0.dtd"
   xmlns:inkscape="http://www.inkscape.org/namespaces/inkscape"
   width="512"
   height="512"
   viewBox="0 0 135.46666 135.46666"
   version="1.1"
   id="svg8"
   inkscape:version="0.92.3 (2405546, 2018-03-11)"
   sodipodi:docname="Sugar Logo.svg"
   inkscape:export-filename="C:\Users\benwi\Desktop\Projects\Sugar\Brand\Sugar Logo.png"
   inkscape:export-xdpi="96"
   inkscape:export-ydpi="96">
  <defs
     id="defs2" />
  <sodipodi:namedview
     id="base"
     pagecolor="#ffffff"
     bordercolor="#666666"
     borderopacity="1.0"
     inkscape:pageopacity="0.0"
     inkscape:pageshadow="2"
     inkscape:zoom="0.7"
     inkscape:cx="601.18648"
     inkscape:cy="232.28727"
     inkscape:document-units="px"
     inkscape:current-layer="layer1"
     showgrid="false"
     inkscape:snap-bbox="true"
     inkscape:bbox-paths="true"
     inkscape:bbox-nodes="true"
     inkscape:snap-bbox-midpoints="true"
     inkscape:snap-bbox-edge-midpoints="true"
     inkscape:snap-object-midpoints="true"
     inkscape:snap-center="true"
     inkscape:snap-smooth-nodes="true"
     inkscape:snap-midpoints="true"
     inkscape:snap-intersection-paths="true"
     inkscape:object-paths="true"
     inkscape:window-width="1920"
     inkscape:window-height="986"
     inkscape:window-x="-11"
     inkscape:window-y="-11"
     inkscape:window-maximized="1"
     units="px" />
  <metadata
     id="metadata5">
    <rdf:RDF>
      <cc:Work
         rdf:about="">
        <dc:format>image/svg+xml</dc:format>
        <dc:type
           rdf:resource="http://purl.org/dc/dcmitype/StillImage" />
        <dc:title />
      </cc:Work>
    </rdf:RDF>
  </metadata>
  <g
     inkscape:label="Layer 1"
     inkscape:groupmode="layer"
     id="layer1"
     transform="translate(0,-161.53336)">
    <path
       id="path815-0-1-2"
       d="m 13.400166,168.09493 v 67.83226 a 55.091319,54.87645 0 0 0 2.2191,15.27553 55.091319,54.87645 0 0 0 5.6e-4,0 34.049072,33.916275 0 0 0 18.822509,5.68053 34.049072,33.916275 0 0 0 34.049191,-33.91189 34.049072,33.916275 0 0 0 0,-0.004 55.091319,54.87645 0 0 1 0,-5.1e-4 55.091319,54.87645 0 0 0 -55.09131,-54.87144 z m 2.22011,83.11073 a 55.091319,54.87645 0 0 0 1.76415,5.09535 55.091319,54.87645 0 0 1 -1.76415,-5.09535 z m 1.80268,5.20103 a 55.091319,54.87645 0 0 0 2.22407,4.80368 55.091319,54.87645 0 0 1 -2.22407,-4.80368 z m 2.31715,4.99562 a 55.091319,54.87645 0 0 0 2.63597,4.45969 55.091319,54.87645 0 0 1 -2.63597,-4.45969 z m 2.80966,4.74237 a 55.091319,54.87645 0 0 0 2.97975,4.05242 55.091319,54.87645 0 0 1 -2.97975,-4.05242 z m 3.27748,4.44276 a 55.091319,54.87645 0 0 0 3.25353,3.60626 55.091319,54.87645 0 0 1 -3.25353,-3.60626 z m 3.71097,4.09532 a 55.091319,54.87645 0 0 0 3.455749,3.13515 55.091319,54.87645 0 0 1 -3.455749,-3.13515 z m 4.106859,3.70493 a 55.091319,54.87645 0 0 0 3.56331,2.63566 55.091319,54.87645 0 0 1 -3.56331,-2.63566 z m 4.46869,3.28073 a 55.091319,54.87645 0 0 0 3.60179,2.14411 55.091319,54.87645 0 0 1 -3.60179,-2.14411 z m 4.77388,2.81363 a 55.091319,54.87645 0 0 0 3.58085,1.67401 55.091319,54.87645 0 0 1 -3.58085,-1.67401 z m 5.03568,2.32253 a 55.091319,54.87645 0 0 0 3.478769,1.22039 55.091319,54.87645 0 0 1 -3.478769,-1.22039 z m 5.251399,1.80715 a 55.091319,54.87645 0 0 0 3.3066,0.80158 55.091319,54.87645 0 0 1 -3.3066,-0.80158 z m 5.40604,1.27117 a 55.091319,54.87645 0 0 0 3.103422,0.43106 55.091319,54.87645 0 0 1 -3.103422,-0.43106 z m 5.538662,0.72584 a 55.091319,54.87645 0 0 0 4.3721,0.19469 55.091319,54.87645 0 0 1 -4.3721,-0.19469 z"
       style="opacity:1;fill:#8c143a;fill-opacity:1;fill-rule:nonzero;stroke:#8c143a;stroke-width:11.74135494;stroke-linecap:round;stroke-linejoin:round;stroke-miterlimit:4;stroke-dasharray:none;stroke-dashoffset:0;stroke-opacity:1"
       inkscape:connector-curvature="0" />
    <path
       id="path815-0-6"
       d="m 123.58283,168.09493 a 55.091319,54.87645 0 0 0 -55.091304,54.8719 34.049072,33.916275 0 0 1 0,0.004 34.049072,33.916275 0 0 1 -34.049241,33.91194 34.049072,33.916275 0 0 1 -18.823019,-5.68058 55.091319,54.87645 0 0 0 52.87226,39.60101 55.091319,54.87645 0 0 0 55.091304,-54.87643 z"
       style="opacity:1;fill:#d11d57;fill-opacity:1;fill-rule:nonzero;stroke:#8c143a;stroke-width:11.74135494;stroke-linecap:round;stroke-linejoin:round;stroke-miterlimit:4;stroke-dasharray:none;stroke-dashoffset:0;stroke-opacity:1"
       inkscape:connector-curvature="0" />
  </g>
</svg>
